# xmcd CD database file
#
# Track frame offsets:
#	150
#	10625
#	26011
#	52510
#	74396
#	93717
#	109886
#	119957
#	142757
#	158047
#	170480
#	192651
#	204293
#	226438
#
# Disc length: 3336 seconds
#
# Revision: 0
# Processed by: cddbd v1.5.2PL0 Copyright (c) Steve Scherf et al.
# Submitted via: CDex 1.70beta2
#
DISCID=bc0d060e
DTITLE=Various Artist - Play - Bang and Olufsen
DYEAR=2006
DGENRE=Jazz
TTITLE0=John Williams - El Diablo Suelto
TTITLE1=Secret Garden - The Reel
TTITLE2=Niels-Henning Ørsted Pedersen - Blank Space
TTITLE3=Moonjam - Two Parrots
TTITLE4=Steen Rasmussen and Benjamin Koppel - Tia Julia
TTITLE5=Kim Sjøgren and His Little Mermaid Orchestra - Serenade
TTITLE6=Bent Fabricius Bjerre - Pusterummet
TTITLE7=Niels Lan Doky - Swedish Suite
TTITLE8=Moonjam - Beat-Less
TTITLE9=The Rosenberg Trio - Honeysuckle Rose
TTITLE10=Christina von Bülow Trio - Nøglen Til Paradis
TTITLE11=The Rosenberg Trio - Tico Tico
TTITLE12=Hans Ulrik - To The Mothers In Brazil
TTITLE13=Christian Alvad and Rasmus Lyberth - Uruq: The Earth Mover
EXTD=YEAR: 2006
EXTT0=
EXTT1=
EXTT2=
EXTT3=
EXTT4=
EXTT5=
EXTT6=
EXTT7=
EXTT8=
EXTT9=
EXTT10=
EXTT11=
EXTT12=
EXTT13=
PLAYORDER=
